<svg width="152" height="30" viewBox="0 0 152 30" fill="none" xmlns="http://www.w3.org/2000/svg">
<path d="M5.15687 23.0279C3.9804 23.0279 3.09804 22.8807 2.46079 22.5863C1.82353 22.2918 1.38235 21.8993 1.08823 21.4086C0.794116 20.9179 0.647057 20.4272 0.598038 19.9365C0.549018 19.3967 0.5 18.9551 0.5 18.5135V11.7419C0.5 11.3984 0.549018 10.9568 0.598038 10.4661C0.647057 9.97543 0.843136 9.43566 1.08823 8.94497C1.38235 8.45427 1.82353 8.06172 2.46079 7.71823C3.09804 7.37475 4.02942 7.22754 5.15687 7.22754H10.0588C13 7.22754 15.1079 7.32568 16.3334 7.47289C17.5588 7.62009 18.1961 7.7673 18.1961 7.96358L17.5098 10.6624C16.8726 10.6133 16.0392 10.5643 15.0098 10.5152C13.9804 10.4661 12.902 10.417 11.7255 10.368C10.549 10.3189 9.42158 10.3189 8.34315 10.3189H6.52942C5.40197 10.3189 4.81373 10.8096 4.81373 11.7419V18.6607C4.81373 19.593 5.35295 20.0837 6.52942 20.0837H8.34315C9.61766 20.0837 10.8432 20.0837 12.0686 20.0347C13.2941 19.9856 14.3726 19.9365 15.402 19.8874C16.4314 19.8384 17.2157 19.7893 17.853 19.7402L19.2745 22.0465C19.2745 22.7825 16.9706 23.126 12.3137 23.126H5.15687V23.0279Z" fill="white"/>
<path d="M26.2346 23.0269C24.4699 23.0269 23.1463 22.5853 22.362 21.7511C21.5777 20.9169 21.1855 19.7883 21.1855 18.3163C21.1855 16.7951 21.6267 15.6174 22.4601 14.7833C23.2934 13.9491 24.5679 13.5565 26.2836 13.5565H28.0973C29.862 13.5565 31.4307 13.6056 32.8522 13.7037C34.2738 13.8019 35.4503 13.9 36.3326 13.9981V11.6428C36.3326 11.4465 36.3326 11.2012 36.2836 11.0049C36.2346 10.7596 36.0875 10.6124 35.8424 10.4651C35.5973 10.3179 35.2052 10.2689 34.666 10.2689H32.9012C30.3522 10.2689 28.1954 10.3179 26.4797 10.4161C24.764 10.5142 23.5875 10.5633 22.9993 10.6614L22.6071 7.96261C22.6071 7.61912 23.4895 7.42284 25.3032 7.37377C27.0679 7.3247 30.0581 7.27563 34.2738 7.27563H36.0385C37.215 7.27563 38.0973 7.42284 38.7346 7.76633C39.3718 8.10981 39.813 8.50237 40.1071 8.99306C40.4013 9.48376 40.5483 9.97445 40.5973 10.5142C40.6464 11.0049 40.6954 11.4465 40.6954 11.79V23.076H37.8032L36.4307 22.389C35.4503 22.5362 34.2738 22.7325 32.8522 22.8797C31.4797 23.0269 29.862 23.1251 28.0973 23.1251H26.2346V23.0269ZM27.166 19.9846H35.2052C35.7444 19.9846 36.0385 19.9355 36.1365 19.8374C36.2346 19.7393 36.2836 19.4448 36.2836 18.9542V16.2553H27.166C26.5287 16.2553 26.0875 16.4025 25.8424 16.697C25.5973 16.9914 25.4503 17.4821 25.4503 18.169C25.4503 18.8069 25.5973 19.2976 25.8914 19.5921C26.1365 19.8374 26.5777 19.9846 27.166 19.9846Z" fill="white"/>
<path d="M50.7941 23.0281C49.0294 23.0281 47.8039 22.6355 47.1177 21.8995C46.4804 21.1635 46.1373 20.0349 46.1373 18.5137V10.2701H43.2451V7.22775H44.7157C45.1569 7.22775 45.5 7.17868 45.6961 7.03147C45.8922 6.88426 46.0392 6.58984 46.1373 6.19729L46.8236 2.41895H50.402V7.27682H57.7549V10.3191H50.402V18.6119C50.402 19.2007 50.549 19.5932 50.8432 19.7895C51.1373 19.9858 51.5294 20.0839 52.1177 20.0839H57.1177L57.4608 22.7828C56.9706 22.8318 56.2353 22.93 55.2059 23.0281C54.1765 23.1262 53.0981 23.1753 51.8726 23.1753H50.7941V23.0281Z" fill="white"/>
<path d="M83.5889 29.6032V7.22754H86.481L87.3634 7.66916C88.4418 7.57102 89.6673 7.42381 91.1379 7.37475C92.6085 7.27661 94.2751 7.22754 96.1869 7.22754H98.0006C99.1771 7.22754 100.059 7.37474 100.697 7.66916C101.334 7.96358 101.775 8.35613 102.069 8.84683C102.363 9.33752 102.51 9.82822 102.559 10.3189C102.608 10.8587 102.658 11.3003 102.658 11.7419V18.5135C102.658 18.857 102.608 19.2986 102.559 19.7893C102.51 20.28 102.314 20.8198 102.069 21.3105C101.775 21.8012 101.334 22.1937 100.697 22.5372C100.059 22.8807 99.1771 23.0279 98.0006 23.0279H96.1869C94.4222 23.0279 92.8046 22.9788 91.432 22.8807C90.0595 22.7825 88.883 22.6844 87.9026 22.5863V29.6032H83.5889ZM88.981 19.9856H96.6281C97.0693 19.9856 97.4614 19.8874 97.8046 19.6421C98.1477 19.3967 98.2948 19.0533 98.2948 18.5626V11.6438C98.2948 11.104 98.1967 10.7605 97.9026 10.5643C97.6085 10.368 97.1673 10.2698 96.5791 10.2698H94.8144C93.2948 10.2698 91.9712 10.3189 90.7947 10.368C89.6183 10.417 88.6379 10.5152 87.8045 10.5643V18.9551C87.8045 19.4949 87.8536 19.7893 87.9516 19.8874C88.1477 19.9365 88.4418 19.9856 88.981 19.9856Z" fill="white"/>
<path d="M111.186 23.0279C110.01 23.0279 109.127 22.8807 108.49 22.5863C107.853 22.2918 107.363 21.8993 107.118 21.4086C106.823 20.9179 106.676 20.4272 106.627 19.9365C106.578 19.3967 106.529 18.9551 106.529 18.5135V7.22754H110.843V18.6116C110.843 19.1514 110.99 19.4949 111.333 19.6912C111.676 19.8874 112.069 19.9856 112.51 19.9856H119.52C120.059 19.9856 120.353 19.9365 120.451 19.8384C120.549 19.7402 120.598 19.4458 120.598 18.9061V7.22754H124.912V23.077H121.97L120.647 22.39C119.716 22.5863 118.588 22.7335 117.314 22.8807C116.039 23.0279 114.569 23.077 113 23.077H111.186V23.0279Z" fill="white"/>
<path d="M129.471 23.0277V3.44905L129.128 0.603027H133.785V22.9787H129.471V23.0277Z" fill="white"/>
<path d="M144.128 23.0281C142.363 23.0281 141.138 22.6355 140.452 21.8995C139.814 21.1635 139.471 20.0349 139.471 18.5137V10.2701H136.579V7.22775H138.05C138.491 7.22775 138.834 7.17868 139.03 7.03147C139.226 6.88426 139.373 6.58984 139.471 6.19729L140.158 2.41895H143.736V7.27682H151.089V10.3191H143.736V18.6119C143.736 19.2007 143.883 19.5932 144.177 19.7895C144.471 19.9858 144.863 20.0839 145.452 20.0839H150.452L150.795 22.7828C150.305 22.8318 149.569 22.93 148.54 23.0281C147.51 23.1262 146.432 23.1753 145.207 23.1753H144.128V23.0281Z" fill="white"/>
<path d="M62.7052 10.6624C62.7052 10.6624 76.4307 15.5203 76.3817 18.17C76.3326 20.8198 60.4013 21.1142 66.7738 16.2072C66.7738 16.2072 65.4013 14.3426 63.4895 13.6066C57.6071 14.0973 53.9307 26.0211 76.3326 22.2918C76.3326 22.2918 75.5483 23.4204 80.1562 23.0279C84.715 22.6353 74.4209 11.0059 63.9797 7.22754L62.7052 10.6624Z" fill="#FF3F71"/>
<path d="M67.4128 5.80374H64.7168C64.4226 5.80374 64.2266 5.55839 64.2266 5.26397V2.56516C64.2266 2.27074 64.4717 2.02539 64.7168 2.02539H67.4128C67.707 2.02539 67.903 2.27074 67.903 2.56516V5.26397C67.9521 5.55839 67.707 5.80374 67.4128 5.80374Z" fill="#FF3F71"/>
</svg>
